<svg width="17" height="20" viewBox="0 0 17 20" fill="none" xmlns="http://www.w3.org/2000/svg">
<g clip-path="url(#clip0_17_14668)">
<path d="M5.61607 11.25H4.09821C3.84777 11.25 3.64286 11.0391 3.64286 10.7812V9.21875C3.64286 8.96094 3.84777 8.75 4.09821 8.75H5.61607C5.86652 8.75 6.07143 8.96094 6.07143 9.21875V10.7812C6.07143 11.0391 5.86652 11.25 5.61607 11.25ZM9.71429 10.7812V9.21875C9.71429 8.96094 9.50938 8.75 9.25893 8.75H7.74107C7.49062 8.75 7.28571 8.96094 7.28571 9.21875V10.7812C7.28571 11.0391 7.49062 11.25 7.74107 11.25H9.25893C9.50938 11.25 9.71429 11.0391 9.71429 10.7812ZM13.3571 10.7812V9.21875C13.3571 8.96094 13.1522 8.75 12.9018 8.75H11.3839C11.1335 8.75 10.9286 8.96094 10.9286 9.21875V10.7812C10.9286 11.0391 11.1335 11.25 11.3839 11.25H12.9018C13.1522 11.25 13.3571 11.0391 13.3571 10.7812ZM9.71429 14.5312V12.9688C9.71429 12.7109 9.50938 12.5 9.25893 12.5H7.74107C7.49062 12.5 7.28571 12.7109 7.28571 12.9688V14.5312C7.28571 14.7891 7.49062 15 7.74107 15H9.25893C9.50938 15 9.71429 14.7891 9.71429 14.5312ZM6.07143 14.5312V12.9688C6.07143 12.7109 5.86652 12.5 5.61607 12.5H4.09821C3.84777 12.5 3.64286 12.7109 3.64286 12.9688V14.5312C3.64286 14.7891 3.84777 15 4.09821 15H5.61607C5.86652 15 6.07143 14.7891 6.07143 14.5312ZM13.3571 14.5312V12.9688C13.3571 12.7109 13.1522 12.5 12.9018 12.5H11.3839C11.1335 12.5 10.9286 12.7109 10.9286 12.9688V14.5312C10.9286 14.7891 11.1335 15 11.3839 15H12.9018C13.1522 15 13.3571 14.7891 13.3571 14.5312ZM17 4.375V18.125C17 19.1602 16.1842 20 15.1786 20H1.82143C0.815848 20 0 19.1602 0 18.125V4.375C0 3.33984 0.815848 2.5 1.82143 2.5H3.64286V0.46875C3.64286 0.210938 3.84777 0 4.09821 0H5.61607C5.86652 0 6.07143 0.210938 6.07143 0.46875V2.5H10.9286V0.46875C10.9286 0.210938 11.1335 0 11.3839 0H12.9018C13.1522 0 13.3571 0.210938 13.3571 0.46875V2.5H15.1786C16.1842 2.5 17 3.33984 17 4.375ZM15.1786 17.8906V6.25H1.82143V17.8906C1.82143 18.0195 1.92388 18.125 2.04911 18.125H14.9509C15.0761 18.125 15.1786 18.0195 15.1786 17.8906Z" fill="#00A9B4"/>
</g>
<defs>
<clipPath id="clip0_17_14668">
<rect width="17" height="20" fill="white"/>
</clipPath>
</defs>
</svg>
