<svg width="350" height="58" viewBox="0 0 350 58" fill="none" xmlns="http://www.w3.org/2000/svg">
<mask id="path-1-inside-1_214_1988" fill="white">
<path d="M0 6C0 2.68629 2.68629 0 6 0H344C347.314 0 350 2.68629 350 6V52C350 55.3137 347.314 58 344 58H5.99999C2.68628 58 0 55.3137 0 52V6Z"/>
</mask>
<path d="M0 6C0 2.68629 2.68629 0 6 0H344C347.314 0 350 2.68629 350 6V52C350 55.3137 347.314 58 344 58H5.99999C2.68628 58 0 55.3137 0 52V6Z" fill="white"/>
<path d="M0 0H350H0ZM350 58H0H350ZM6 58C0.477153 58 -4 53.5228 -4 48V10C-4 4.47715 0.477153 0 6 0C4.89543 0 4 2.68629 4 6V52C4 55.3137 4.89543 58 6 58ZM350 0V58V0Z" fill="#FF8F40" mask="url(#path-1-inside-1_214_1988)"/>
</svg>
