<svg width="139" height="147" viewBox="0 0 139 147" fill="none" xmlns="http://www.w3.org/2000/svg">
<path d="M39.9522 93.8072L42.704 94.2671C42.3518 95.2764 41.7907 96.0469 41.0267 96.5785C40.2626 97.1041 39.3075 97.3729 38.1614 97.3729C36.3468 97.3729 34.9977 96.7816 34.1262 95.593C33.4398 94.6433 33.0935 93.4428 33.0935 91.9915C33.0935 90.2594 33.5472 88.9036 34.4486 87.9241C35.3559 86.9445 36.496 86.4548 37.8809 86.4548C39.4329 86.4548 40.6626 86.9684 41.5579 87.9957C42.4593 89.023 42.8891 90.5938 42.8473 92.7142H35.923C35.9409 93.5324 36.1677 94.1715 36.5915 94.6314C37.0153 95.0853 37.5466 95.3183 38.1853 95.3183C38.6211 95.3183 38.9852 95.1988 39.2777 94.9659C39.5761 94.709 39.803 94.3328 39.9522 93.8072ZM40.1074 91.0119C40.0895 90.2116 39.8806 89.6024 39.4866 89.1843C39.0926 88.7662 38.6151 88.5572 38.048 88.5572C37.4451 88.5572 36.9437 88.7781 36.5557 89.2142C36.1617 89.6561 35.9707 90.2534 35.9767 91.006H40.1074V91.0119Z" fill="black"/>
<path d="M42.6742 97.134L47.6048 89.6024L43.1398 82.7039H46.5423L49.4374 87.3387L52.2728 82.7039H55.6454L51.1565 89.7099L56.0871 97.134H52.5772L49.3777 92.1408L46.1722 97.134H42.6742Z" fill="black"/>
<path d="M62.5697 93.8072L65.3215 94.2671C64.9693 95.2764 64.4082 96.0469 63.6442 96.5785C62.8801 97.1041 61.925 97.3729 60.7789 97.3729C58.9643 97.3729 57.6152 96.7816 56.7437 95.593C56.0572 94.6433 55.711 93.4428 55.711 91.9915C55.711 90.2594 56.1647 88.9036 57.066 87.9241C57.9734 86.9445 59.1135 86.4548 60.4984 86.4548C62.0504 86.4548 63.28 86.9684 64.1754 87.9957C65.0768 89.023 65.5066 90.5938 65.4648 92.7142H58.5405C58.5584 93.5324 58.7852 94.1715 59.209 94.6314C59.6328 95.0853 60.1641 95.3183 60.8028 95.3183C61.2386 95.3183 61.6027 95.1988 61.8952 94.9659C62.1936 94.709 62.4205 94.3328 62.5697 93.8072ZM62.7249 91.0119C62.707 90.2116 62.4981 89.6024 62.1041 89.1843C61.7101 88.7662 61.2326 88.5572 60.6655 88.5572C60.0626 88.5572 59.5612 88.7781 59.1732 89.2142C58.7792 89.6561 58.5882 90.2534 58.5942 91.006H62.7249V91.0119Z" fill="black"/>
<path d="M76.5915 97.1339H73.8277V91.8003C73.8277 90.6715 73.768 89.9428 73.6486 89.6083C73.5293 89.2798 73.3382 89.0171 73.0756 88.8379C72.807 88.6527 72.4906 88.5631 72.1145 88.5631C71.637 88.5631 71.2072 88.6945 70.8252 88.9573C70.4432 89.2201 70.1865 89.5665 70.0432 90.0025C69.8999 90.4386 69.8343 91.2389 69.8343 92.4036V97.1399H67.0705V86.6877H69.6373V88.2227C70.5506 87.0401 71.6967 86.4488 73.0816 86.4488C73.6904 86.4488 74.2515 86.5563 74.753 86.7773C75.2603 86.9983 75.6424 87.279 75.8991 87.6194C76.1557 87.9599 76.3408 88.3481 76.4423 88.7781C76.5437 89.2141 76.5915 89.8293 76.5915 90.6416V97.1339Z" fill="black"/>
<path d="M83.5636 86.6817V88.8857H81.6773V93.0964C81.6773 93.9505 81.6952 94.4462 81.731 94.5896C81.7668 94.7329 81.8504 94.8464 81.9757 94.942C82.1011 95.0316 82.2563 95.0793 82.4413 95.0793C82.698 95.0793 83.0681 94.9897 83.5516 94.8165L83.7904 96.9607C83.1457 97.2355 82.4175 97.3729 81.6057 97.3729C81.1042 97.3729 80.6565 97.2892 80.2566 97.122C79.8567 96.9548 79.5642 96.7398 79.3791 96.471C79.1941 96.2022 79.0627 95.8438 78.9911 95.3899C78.9314 95.0674 78.9016 94.4164 78.9016 93.4428V88.8857H77.6301V86.6817H78.9016V84.6032L81.6773 82.9906V86.6817H83.5636Z" fill="black"/>
<path d="M87.736 97.1339H84.9723V86.6817H87.5391V88.1689C87.9808 87.4641 88.3748 87.0043 88.7269 86.7833C89.0791 86.5623 89.4731 86.4488 89.9208 86.4488C90.5476 86.4488 91.1564 86.622 91.7414 86.9684L90.8878 89.3814C90.4222 89.0827 89.9865 88.9275 89.5865 88.9275C89.1985 88.9275 88.8702 89.035 88.6016 89.25C88.333 89.465 88.124 89.8472 87.9688 90.4087C87.8136 90.9641 87.736 92.1348 87.736 93.9147V97.1339Z" fill="black"/>
<path d="M92.5055 85.2602V82.6979H95.2693V85.2602H92.5055ZM92.5055 97.1339V86.6817H95.2693V97.1339H92.5055Z" fill="black"/>
<path d="M106.605 89.7696L103.877 90.2594C103.787 89.7158 103.578 89.3037 103.25 89.029C102.928 88.7542 102.504 88.6169 101.985 88.6169C101.298 88.6169 100.749 88.8558 100.337 89.3276C99.9253 89.8054 99.7223 90.5998 99.7223 91.7167C99.7223 92.959 99.9313 93.831 100.349 94.3447C100.767 94.8583 101.322 95.1152 102.026 95.1152C102.552 95.1152 102.982 94.9658 103.316 94.6672C103.65 94.3686 103.889 93.8549 104.026 93.1262L106.742 93.5861C106.462 94.8344 105.918 95.7722 105.119 96.4112C104.319 97.0503 103.244 97.3669 101.901 97.3669C100.373 97.3669 99.1552 96.8831 98.2479 95.9215C97.3406 94.9539 96.8869 93.622 96.8869 91.9138C96.8869 90.1877 97.3406 88.8438 98.2539 87.8822C99.1672 86.9206 100.397 86.4368 101.955 86.4368C103.226 86.4368 104.241 86.7116 104.987 87.2611C105.739 87.8106 106.277 88.6467 106.605 89.7696Z" fill="black"/>
<path d="M46.6139 104.474V100.831H45.3126V100.091H48.7927V100.831H47.4973V104.474H46.6139Z" fill="black"/>
<path d="M50.6312 103.465L51.4669 103.602C51.3594 103.907 51.1923 104.146 50.9595 104.301C50.7267 104.462 50.4342 104.54 50.088 104.54C49.5388 104.54 49.1269 104.361 48.8643 103.997C48.6554 103.71 48.5479 103.346 48.5479 102.904C48.5479 102.378 48.6852 101.966 48.9598 101.667C49.2344 101.369 49.5806 101.219 50.0044 101.219C50.476 101.219 50.852 101.375 51.1207 101.685C51.3952 101.996 51.5266 102.474 51.5146 103.119H49.4135C49.4194 103.369 49.4851 103.561 49.6164 103.698C49.7477 103.835 49.9089 103.907 50.0999 103.907C50.2312 103.907 50.3447 103.871 50.4342 103.799C50.5178 103.74 50.5834 103.626 50.6312 103.465ZM50.6789 102.617C50.673 102.372 50.6073 102.187 50.4879 102.061C50.3685 101.936 50.2253 101.87 50.0522 101.87C49.8671 101.87 49.7179 101.936 49.5985 102.073C49.4791 102.205 49.4194 102.39 49.4194 102.617H50.6789Z" fill="black"/>
<path d="M54.8694 102.241L54.0396 102.39C54.0098 102.223 53.9501 102.097 53.8486 102.014C53.7471 101.93 53.6218 101.888 53.4666 101.888C53.2577 101.888 53.0905 101.96 52.9652 102.103C52.8398 102.247 52.7801 102.491 52.7801 102.826C52.7801 103.202 52.8458 103.471 52.9711 103.626C53.0965 103.782 53.2696 103.859 53.4785 103.859C53.6397 103.859 53.771 103.811 53.8725 103.722C53.974 103.632 54.0456 103.477 54.0874 103.256L54.9111 103.399C54.8276 103.776 54.6604 104.062 54.4157 104.259C54.171 104.45 53.8486 104.552 53.4367 104.552C52.9711 104.552 52.601 104.403 52.3265 104.11C52.0519 103.817 51.9146 103.411 51.9146 102.892C51.9146 102.366 52.0519 101.96 52.3324 101.667C52.607 101.375 52.9831 101.231 53.4546 101.231C53.8427 101.231 54.1471 101.315 54.3739 101.482C54.6067 101.643 54.7679 101.9 54.8694 102.241Z" fill="black"/>
<path d="M56.2483 100.09V101.703C56.5169 101.387 56.8452 101.225 57.2212 101.225C57.4123 101.225 57.5913 101.261 57.7465 101.333C57.9017 101.404 58.0211 101.494 58.0987 101.608C58.1763 101.721 58.23 101.84 58.2599 101.978C58.2897 102.115 58.3017 102.324 58.3017 102.611V104.474H57.46V102.796C57.46 102.462 57.4421 102.253 57.4123 102.163C57.3824 102.073 57.3227 102.002 57.2451 101.948C57.1675 101.894 57.066 101.87 56.9407 101.87C56.8034 101.87 56.678 101.906 56.5646 101.972C56.4572 102.038 56.3736 102.139 56.3259 102.276C56.2781 102.414 56.2483 102.617 56.2483 102.88V104.468H55.4066V100.084H56.2483V100.09Z" fill="black"/>
<path d="M61.9191 104.474H61.0774V102.856C61.0774 102.515 61.0595 102.288 61.0237 102.193C60.9879 102.091 60.9282 102.014 60.8506 101.96C60.773 101.906 60.6715 101.876 60.5581 101.876C60.4148 101.876 60.2835 101.918 60.1641 101.996C60.0507 102.073 59.9671 102.181 59.9253 102.312C59.8835 102.444 59.8597 102.689 59.8597 103.041V104.48H59.018V101.303H59.8V101.769C60.0746 101.41 60.4267 101.231 60.8446 101.231C61.0296 101.231 61.1968 101.267 61.352 101.333C61.5072 101.398 61.6206 101.482 61.6982 101.59C61.7758 101.691 61.8295 101.811 61.8653 101.942C61.8952 102.073 61.9131 102.264 61.9131 102.509V104.474H61.9191Z" fill="black"/>
<path d="M62.4682 102.844C62.4682 102.563 62.5399 102.294 62.6772 102.032C62.8144 101.769 63.0114 101.572 63.2621 101.434C63.5129 101.297 63.7934 101.225 64.1038 101.225C64.5813 101.225 64.9753 101.381 65.2857 101.691C65.5902 102.002 65.7453 102.396 65.7453 102.874C65.7453 103.352 65.5901 103.752 65.2797 104.068C64.9693 104.385 64.5813 104.54 64.1098 104.54C63.8173 104.54 63.5427 104.474 63.28 104.343C63.0174 104.212 62.8144 104.02 62.6772 103.764C62.5399 103.519 62.4682 103.208 62.4682 102.844ZM63.3338 102.886C63.3338 103.202 63.4054 103.441 63.5606 103.608C63.7098 103.776 63.8949 103.859 64.1157 103.859C64.3366 103.859 64.5157 103.776 64.6649 103.608C64.8141 103.441 64.8858 103.196 64.8858 102.88C64.8858 102.569 64.8141 102.33 64.6649 102.163C64.5157 101.996 64.3306 101.912 64.1157 101.912C63.8949 101.912 63.7098 101.996 63.5606 102.163C63.4054 102.33 63.3338 102.575 63.3338 102.886Z" fill="black"/>
<path d="M66.3065 104.474V100.09H67.1481V104.474H66.3065Z" fill="black"/>
<path d="M67.7152 102.844C67.7152 102.563 67.7868 102.294 67.9241 102.032C68.0614 101.769 68.2584 101.572 68.5091 101.434C68.7598 101.297 69.0404 101.225 69.3508 101.225C69.8283 101.225 70.2223 101.381 70.5327 101.691C70.8371 102.002 70.9923 102.396 70.9923 102.874C70.9923 103.352 70.8371 103.752 70.5267 104.068C70.2163 104.385 69.8283 104.54 69.3568 104.54C69.0643 104.54 68.7897 104.474 68.527 104.343C68.2644 104.212 68.0614 104.02 67.9241 103.764C67.7809 103.519 67.7152 103.208 67.7152 102.844ZM68.5748 102.886C68.5748 103.202 68.6464 103.441 68.8016 103.608C68.9508 103.776 69.1359 103.859 69.3568 103.859C69.5776 103.859 69.7567 103.776 69.9059 103.608C70.0552 103.441 70.1268 103.196 70.1268 102.88C70.1268 102.569 70.0552 102.33 69.9059 102.163C69.7567 101.996 69.5716 101.912 69.3568 101.912C69.1359 101.912 68.9508 101.996 68.8016 102.163C68.6524 102.33 68.5748 102.575 68.5748 102.886Z" fill="black"/>
<path d="M71.4818 104.683L72.4428 104.803C72.4607 104.916 72.4966 104.994 72.5563 105.036C72.6339 105.096 72.7592 105.125 72.9323 105.125C73.1532 105.125 73.3143 105.09 73.4278 105.024C73.4994 104.982 73.5591 104.91 73.5949 104.809C73.6188 104.737 73.6367 104.612 73.6367 104.421V103.955C73.386 104.295 73.0696 104.468 72.6876 104.468C72.2638 104.468 71.9235 104.289 71.6728 103.925C71.4758 103.638 71.3803 103.286 71.3803 102.862C71.3803 102.33 71.5057 101.924 71.7623 101.643C72.019 101.363 72.3354 101.219 72.7174 101.219C73.1114 101.219 73.4337 101.393 73.6904 101.739V101.291H74.4783V104.14C74.4783 104.516 74.4485 104.797 74.3888 104.982C74.3291 105.167 74.2396 105.311 74.1262 105.418C74.0127 105.526 73.8635 105.609 73.6785 105.669C73.4934 105.729 73.2547 105.759 72.9741 105.759C72.4369 105.759 72.0548 105.669 71.828 105.484C71.6012 105.299 71.4878 105.066 71.4878 104.785C71.4818 104.761 71.4818 104.725 71.4818 104.683ZM72.2339 102.82C72.2339 103.154 72.2996 103.405 72.4309 103.561C72.5622 103.716 72.7234 103.794 72.9144 103.794C73.1174 103.794 73.2905 103.716 73.4337 103.555C73.577 103.393 73.6486 103.154 73.6486 102.844C73.6486 102.515 73.583 102.27 73.4457 102.109C73.3084 101.948 73.1412 101.87 72.9323 101.87C72.7294 101.87 72.5682 101.948 72.4369 102.103C72.2996 102.265 72.2339 102.503 72.2339 102.82Z" fill="black"/>
<path d="M74.8186 101.303H75.714L76.4721 103.555L77.2123 101.303H78.0838L76.9616 104.361L76.7646 104.916C76.693 105.102 76.6213 105.245 76.5557 105.34C76.49 105.436 76.4124 105.52 76.3288 105.579C76.2393 105.639 76.1378 105.687 76.0065 105.723C75.8811 105.759 75.7379 105.77 75.5767 105.77C75.4155 105.77 75.2544 105.753 75.0992 105.723L75.0216 105.066C75.1529 105.09 75.2723 105.108 75.3797 105.108C75.5767 105.108 75.72 105.048 75.8155 104.934C75.911 104.821 75.9826 104.672 76.0304 104.498L74.8186 101.303Z" fill="black"/>
<path d="M82.8055 102.241L81.9757 102.39C81.9459 102.223 81.8862 102.097 81.7847 102.014C81.6832 101.93 81.5579 101.888 81.4027 101.888C81.1938 101.888 81.0266 101.96 80.9013 102.103C80.7759 102.247 80.7162 102.491 80.7162 102.826C80.7162 103.202 80.7819 103.471 80.9072 103.626C81.0326 103.782 81.2057 103.859 81.4146 103.859C81.5758 103.859 81.7071 103.811 81.8086 103.722C81.9101 103.632 81.9817 103.477 82.0235 103.256L82.8472 103.399C82.7637 103.776 82.5965 104.062 82.3518 104.259C82.1071 104.45 81.7847 104.552 81.3728 104.552C80.9072 104.552 80.5371 104.403 80.2626 104.11C79.988 103.817 79.8507 103.411 79.8507 102.892C79.8507 102.366 79.988 101.96 80.2685 101.667C80.5431 101.375 80.9192 101.231 81.3907 101.231C81.7787 101.231 82.0832 101.315 82.31 101.482C82.5428 101.643 82.7099 101.9 82.8055 102.241Z" fill="black"/>
<path d="M83.1636 102.844C83.1636 102.563 83.2353 102.294 83.3726 102.032C83.5098 101.769 83.7068 101.572 83.9575 101.434C84.2082 101.297 84.4888 101.225 84.7992 101.225C85.2767 101.225 85.6707 101.381 85.9811 101.691C86.2855 102.002 86.4407 102.396 86.4407 102.874C86.4407 103.352 86.2855 103.752 85.9751 104.068C85.6647 104.385 85.2768 104.54 84.8052 104.54C84.5127 104.54 84.2381 104.474 83.9754 104.343C83.7128 104.212 83.5098 104.02 83.3726 103.764C83.2293 103.519 83.1636 103.208 83.1636 102.844ZM84.0232 102.886C84.0232 103.202 84.0948 103.441 84.25 103.608C84.3993 103.776 84.5843 103.859 84.8052 103.859C85.026 103.859 85.2051 103.776 85.3543 103.608C85.5036 103.441 85.5752 103.196 85.5752 102.88C85.5752 102.569 85.5036 102.33 85.3543 102.163C85.2051 101.996 85.0201 101.912 84.8052 101.912C84.5843 101.912 84.3993 101.996 84.25 102.163C84.0948 102.33 84.0232 102.575 84.0232 102.886Z" fill="black"/>
<path d="M87.8077 104.474H86.966V101.297H87.748V101.751C87.8793 101.536 87.9987 101.398 88.1062 101.327C88.2136 101.261 88.333 101.225 88.4703 101.225C88.6613 101.225 88.8463 101.279 89.0254 101.386L88.7628 102.121C88.6195 102.032 88.4882 101.984 88.3688 101.984C88.2494 101.984 88.1539 102.014 88.0703 102.079C87.9868 102.145 87.9211 102.258 87.8793 102.432C87.8316 102.599 87.8077 102.957 87.8077 103.495V104.474Z" fill="black"/>
<path d="M89.3298 101.303H90.1118V101.769C90.2133 101.607 90.3506 101.482 90.5237 101.381C90.6968 101.279 90.8878 101.231 91.1027 101.231C91.4728 101.231 91.7832 101.375 92.0399 101.667C92.2966 101.954 92.4279 102.36 92.4279 102.874C92.4279 103.405 92.2966 103.817 92.0399 104.11C91.7832 104.403 91.4668 104.552 91.0967 104.552C90.9236 104.552 90.7625 104.516 90.6192 104.445C90.4759 104.373 90.3267 104.253 90.1715 104.086V105.687H89.3298V101.303ZM90.1596 102.832C90.1596 103.19 90.2312 103.453 90.3745 103.62C90.5177 103.793 90.6908 103.877 90.8938 103.877C91.0908 103.877 91.2519 103.799 91.3833 103.644C91.5146 103.489 91.5802 103.232 91.5802 102.874C91.5802 102.539 91.5146 102.294 91.3833 102.133C91.2519 101.972 91.0848 101.888 90.8878 101.888C90.6849 101.888 90.5117 101.966 90.3745 102.127C90.2252 102.288 90.1596 102.521 90.1596 102.832Z" fill="black"/>
<path d="M92.9472 104.474V103.632H93.7889V104.474H92.9472Z" fill="black"/>
<path d="M85.8856 51.0248L66.4616 63.7944C67.7868 65.4309 69.0583 66.4522 70.2879 66.8703C72.0309 67.4855 73.6606 67.3003 75.1648 66.3089C76.1199 65.6817 76.8481 64.8157 77.3496 63.7227C77.654 63.0358 77.8211 62.0683 77.8629 60.82L88.0584 55.5341C88.4762 59.3507 88.0584 62.5521 86.8048 65.1502C85.5573 67.7423 83.0024 70.3106 79.1463 72.849C75.7975 75.0469 72.8129 76.2475 70.1984 76.4505C67.5779 76.6536 64.8798 76.0145 62.1041 74.5333C59.3224 73.0521 56.9108 70.7526 54.8574 67.6289C51.9384 63.1852 50.8461 58.7594 51.5743 54.3456C52.3026 49.9377 54.8932 46.2645 59.3523 43.3319C62.9696 40.9548 66.2288 39.6886 69.1359 39.5452C72.0369 39.3959 74.8067 40.1365 77.4331 41.7492C80.0656 43.3678 82.6085 46.0495 85.0678 49.7944L85.8856 51.0248ZM72.604 52.285C71.0341 50.3021 69.5358 49.1314 68.1211 48.7551C66.7064 48.3848 65.3334 48.6357 63.9963 49.5137C62.4563 50.529 61.6803 52.0222 61.6624 53.9992C61.6385 55.2415 62.1041 56.7645 63.0592 58.5623L72.604 52.285Z" fill="url(#paint0_linear_17_14616)"/>
<path d="M61.6624 53.4378C61.6624 53.4378 62.11 39.0077 83.1934 49.3883C83.8978 49.7347 85.8856 51.0248 85.8856 51.0248C85.8856 51.0248 78.3046 35.7586 67.1302 39.8917C55.9617 44.0188 61.6624 53.4378 61.6624 53.4378Z" fill="url(#paint1_linear_17_14616)"/>
<path d="M63.0592 58.5623C63.0592 58.5623 56.9108 49.657 70.4252 39.1809C70.4252 39.1809 56.9884 40.1903 52.1772 51.9744L56.7795 56.8123L63.0592 58.5623Z" fill="url(#paint2_linear_17_14616)"/>
<path d="M63.0592 58.5623C63.0592 58.5623 53.3054 55.2117 53.3054 49.657C53.3054 49.657 47.2645 58.0487 54.8694 67.6289L58.9225 72.3234L63.0592 58.5623Z" fill="url(#paint3_linear_17_14616)"/>
<path d="M63.0592 58.5623C63.0592 58.5623 55.9617 68.465 52.6369 64.1468C52.6369 64.1468 57.9077 75.4412 67.8226 76.4028L63.0592 58.5623Z" fill="url(#paint4_linear_17_14616)"/>
<path d="M84.8469 68.0648C84.8469 68.0648 70.9505 70.2449 66.4616 63.7944C62.5398 58.1621 63.0592 58.5623 63.0592 58.5623C63.0592 58.5623 58.9464 67.0316 60.0268 73.1596C60.0268 73.1596 66.1692 78.8515 74.6336 75.3038C77.5167 74.0913 81.9996 71.3558 84.8469 68.0648Z" fill="url(#paint5_linear_17_14616)"/>
<path d="M78.245 11.9036C78.245 7.13735 74.3829 3.27899 69.6254 3.27899C64.8619 3.27899 61.0058 7.13735 61.0058 11.9036C61.0058 16.6698 64.8619 20.5281 69.6254 20.5281C74.3829 20.5281 78.245 16.6698 78.245 11.9036Z" fill="url(#paint6_linear_17_14616)"/>
<path d="M54.547 13.4445C53.3472 10.1476 49.7 8.44538 46.405 9.64589C43.1099 10.8464 41.4087 14.4957 42.6085 17.7926C43.8083 21.0896 47.4556 22.7918 50.7506 21.5913C54.0456 20.3908 55.7469 16.7415 54.547 13.4445Z" fill="url(#paint7_linear_17_14616)"/>
<path d="M33.4159 23.5025C31.8639 21.657 29.112 21.4121 27.2676 22.965C25.4231 24.5179 25.1783 27.2713 26.7303 29.1169C28.2823 30.9624 31.0342 31.2073 32.8786 29.6544C34.7231 28.1015 34.9619 25.3481 33.4159 23.5025Z" fill="url(#paint8_linear_17_14616)"/>
<path d="M20.6417 35.215C16.5169 32.8319 11.2461 34.2474 8.86434 38.3746C6.4826 42.5017 7.89732 47.7756 12.0161 50.1587C16.1409 52.5418 21.4117 51.1263 23.7934 47.0051C26.1811 42.872 24.7664 37.5981 20.6417 35.215Z" fill="url(#paint9_linear_17_14616)"/>
<path d="M10.1298 56.5196C6.67363 55.9104 3.3786 58.2159 2.76974 61.6741C2.16088 65.1322 4.46501 68.4292 7.9212 69.0384C11.3774 69.6476 14.6724 67.3362 15.2813 63.8839C15.8902 60.4258 13.586 57.1288 10.1298 56.5196Z" fill="url(#paint10_linear_17_14616)"/>
<path d="M8.26743 79.8609C5.89167 80.279 4.30982 82.5426 4.72766 84.9198C5.14551 87.2969 7.40786 88.8797 9.78362 88.4616C12.1594 88.0435 13.7412 85.7798 13.3234 83.4027C12.9055 81.0316 10.6432 79.4428 8.26743 79.8609Z" fill="url(#paint11_linear_17_14616)"/>
<path d="M12.0221 96.7875C7.89732 99.1706 6.48858 104.445 8.86434 108.572C11.2461 112.699 16.5169 114.108 20.6417 111.731C24.7664 109.348 26.1752 104.074 23.7934 99.9471C21.4177 95.8199 16.1468 94.4044 12.0221 96.7875Z" fill="url(#paint12_linear_17_14616)"/>
<path d="M25.2022 116.551C22.9458 119.239 23.298 123.247 25.9841 125.504C28.6703 127.762 32.6817 127.41 34.9321 124.722C37.1884 122.034 36.8362 118.02 34.1501 115.769C31.4639 113.511 27.4586 113.857 25.2022 116.551Z" fill="url(#paint13_linear_17_14616)"/>
<path d="M44.4769 129.834C43.6531 132.098 44.8231 134.607 47.0855 135.431C49.3478 136.255 51.8549 135.09 52.6787 132.821C53.5024 130.557 52.3324 128.049 50.0701 127.224C47.8077 126.4 45.3007 127.565 44.4769 129.834Z" fill="url(#paint14_linear_17_14616)"/>
<path d="M60.9998 135.037C60.9998 139.803 64.8619 143.661 69.6194 143.661C74.3828 143.661 78.239 139.803 78.239 135.037C78.239 130.27 74.3828 126.412 69.6194 126.412C64.8619 126.412 60.9998 130.276 60.9998 135.037Z" fill="url(#paint15_linear_17_14616)"/>
<path d="M84.6977 133.502C85.8975 136.799 89.5448 138.501 92.8398 137.3C96.1348 136.1 97.8361 132.45 96.6362 129.154C95.4364 125.857 91.7892 124.154 88.4942 125.355C85.1991 126.555 83.4979 130.199 84.6977 133.502Z" fill="url(#paint16_linear_17_14616)"/>
<path d="M105.829 123.444C107.381 125.289 110.133 125.534 111.977 123.981C113.822 122.428 114.066 119.675 112.514 117.829C110.968 115.984 108.217 115.739 106.366 117.292C104.522 118.839 104.283 121.592 105.829 123.444Z" fill="url(#paint17_linear_17_14616)"/>
<path d="M118.597 111.725C122.722 114.108 127.993 112.693 130.374 108.566C132.756 104.439 131.341 99.1647 127.223 96.7816C123.098 94.3985 117.827 95.814 115.445 99.9352C113.064 104.068 114.478 109.342 118.597 111.725Z" fill="url(#paint18_linear_17_14616)"/>
<path d="M129.115 90.4206C132.571 91.0299 135.866 88.7244 136.475 85.2662C137.084 81.808 134.78 78.5111 131.324 77.9019C127.867 77.2927 124.572 79.6041 123.963 83.0563C123.355 86.5145 125.659 89.8114 129.115 90.4206Z" fill="url(#paint19_linear_17_14616)"/>
<path d="M130.977 67.0793C133.353 66.6612 134.935 64.3976 134.517 62.0205C134.099 59.6433 131.837 58.0606 129.461 58.4786C127.091 58.8967 125.504 61.1604 125.921 63.5375C126.339 65.9147 128.602 67.4974 130.977 67.0793Z" fill="url(#paint20_linear_17_14616)"/>
<path d="M127.223 50.1587C131.347 47.7756 132.756 42.5017 130.374 38.3746C127.993 34.2474 122.722 32.8379 118.603 35.221C114.478 37.6041 113.07 42.878 115.445 46.9991C117.827 51.1263 123.098 52.5418 127.223 50.1587Z" fill="url(#paint21_linear_17_14616)"/>
<path d="M114.043 30.395C116.299 27.7073 115.947 23.6996 113.261 21.442C110.574 19.1843 106.563 19.5367 104.313 22.2244C102.056 24.9121 102.408 28.9257 105.095 31.1775C107.781 33.4351 111.786 33.0827 114.043 30.395Z" fill="url(#paint22_linear_17_14616)"/>
<path d="M94.7679 17.1117C95.5916 14.8481 94.4216 12.3395 92.1593 11.5153C89.8969 10.6911 87.3899 11.8558 86.5661 14.1254C85.7423 16.389 86.9123 18.8976 89.1747 19.7218C91.437 20.546 93.9441 19.3754 94.7679 17.1117Z" fill="url(#paint23_linear_17_14616)"/>
<defs>
<linearGradient id="paint0_linear_17_14616" x1="86.6572" y1="73.8976" x2="64.5443" y2="53.4974" gradientUnits="userSpaceOnUse">
<stop stop-color="#4B0600"/>
<stop offset="0.122" stop-color="#4E0A00"/>
<stop offset="0.2583" stop-color="#551401"/>
<stop offset="0.4015" stop-color="#612013"/>
<stop offset="0.5497" stop-color="#733129"/>
<stop offset="0.7015" stop-color="#8B4744"/>
<stop offset="0.8541" stop-color="#AB6569"/>
<stop offset="1" stop-color="#D1899B"/>
</linearGradient>
<linearGradient id="paint1_linear_17_14616" x1="63.5618" y1="46.3077" x2="89.2403" y2="46.3077" gradientUnits="userSpaceOnUse">
<stop stop-color="#4B0600"/>
<stop offset="0.122" stop-color="#4E0A00"/>
<stop offset="0.2583" stop-color="#551401"/>
<stop offset="0.4015" stop-color="#612013"/>
<stop offset="0.5497" stop-color="#733129"/>
<stop offset="0.7015" stop-color="#8B4744"/>
<stop offset="0.8541" stop-color="#AB6569"/>
<stop offset="1" stop-color="#D1899B"/>
</linearGradient>
<linearGradient id="paint2_linear_17_14616" x1="52.1761" y1="48.8697" x2="70.4247" y2="48.8697" gradientUnits="userSpaceOnUse">
<stop stop-color="#4B0600"/>
<stop offset="0.122" stop-color="#4E0A00"/>
<stop offset="0.2583" stop-color="#551401"/>
<stop offset="0.4015" stop-color="#612013"/>
<stop offset="0.5497" stop-color="#733129"/>
<stop offset="0.7015" stop-color="#8B4744"/>
<stop offset="0.8541" stop-color="#AB6569"/>
<stop offset="1" stop-color="#D1899B"/>
</linearGradient>
<linearGradient id="paint3_linear_17_14616" x1="51.0281" y1="60.9889" x2="63.0588" y2="60.9889" gradientUnits="userSpaceOnUse">
<stop stop-color="#4B0600"/>
<stop offset="0.122" stop-color="#4E0A00"/>
<stop offset="0.2583" stop-color="#551401"/>
<stop offset="0.4015" stop-color="#612013"/>
<stop offset="0.5497" stop-color="#733129"/>
<stop offset="0.7015" stop-color="#8B4744"/>
<stop offset="0.8541" stop-color="#AB6569"/>
<stop offset="1" stop-color="#D1899B"/>
</linearGradient>
<linearGradient id="paint4_linear_17_14616" x1="52.6379" y1="67.4818" x2="67.825" y2="67.4818" gradientUnits="userSpaceOnUse">
<stop stop-color="#4B0600"/>
<stop offset="0.122" stop-color="#4E0A00"/>
<stop offset="0.2583" stop-color="#551401"/>
<stop offset="0.4015" stop-color="#612013"/>
<stop offset="0.5497" stop-color="#733129"/>
<stop offset="0.7015" stop-color="#8B4744"/>
<stop offset="0.8541" stop-color="#AB6569"/>
<stop offset="1" stop-color="#D1899B"/>
</linearGradient>
<linearGradient id="paint5_linear_17_14616" x1="59.8445" y1="67.5102" x2="84.8481" y2="67.5102" gradientUnits="userSpaceOnUse">
<stop stop-color="#4B0600"/>
<stop offset="0.122" stop-color="#4E0A00"/>
<stop offset="0.2583" stop-color="#551401"/>
<stop offset="0.4015" stop-color="#612013"/>
<stop offset="0.5497" stop-color="#733129"/>
<stop offset="0.7015" stop-color="#8B4744"/>
<stop offset="0.8541" stop-color="#AB6569"/>
<stop offset="1" stop-color="#D1899B"/>
</linearGradient>
<linearGradient id="paint6_linear_17_14616" x1="61.0029" y1="11.9039" x2="78.2433" y2="11.9039" gradientUnits="userSpaceOnUse">
<stop stop-color="#719231"/>
<stop offset="1" stop-color="#89C247"/>
</linearGradient>
<linearGradient id="paint7_linear_17_14616" x1="42.2225" y1="15.6164" x2="54.9326" y2="15.6164" gradientUnits="userSpaceOnUse">
<stop stop-color="#719231"/>
<stop offset="1" stop-color="#89C247"/>
</linearGradient>
<linearGradient id="paint8_linear_17_14616" x1="25.7068" y1="26.3074" x2="34.4345" y2="26.3074" gradientUnits="userSpaceOnUse">
<stop stop-color="#719231"/>
<stop offset="1" stop-color="#89C247"/>
</linearGradient>
<linearGradient id="paint9_linear_17_14616" x1="7.71317" y1="42.6871" x2="24.9553" y2="42.6871" gradientUnits="userSpaceOnUse">
<stop stop-color="#1E8F84"/>
<stop offset="0.966" stop-color="#43A695"/>
<stop offset="1" stop-color="#44A695"/>
</linearGradient>
<linearGradient id="paint10_linear_17_14616" x1="2.67125" y1="62.78" x2="15.379" y2="62.78" gradientUnits="userSpaceOnUse">
<stop stop-color="#1E8F84"/>
<stop offset="0.966" stop-color="#43A695"/>
<stop offset="1" stop-color="#44A695"/>
</linearGradient>
<linearGradient id="paint11_linear_17_14616" x1="4.66087" y1="84.1619" x2="13.3893" y2="84.1619" gradientUnits="userSpaceOnUse">
<stop stop-color="#1E8F84"/>
<stop offset="0.966" stop-color="#43A695"/>
<stop offset="1" stop-color="#44A695"/>
</linearGradient>
<linearGradient id="paint12_linear_17_14616" x1="7.71257" y1="104.255" x2="24.9547" y2="104.255" gradientUnits="userSpaceOnUse">
<stop stop-color="#F15B2A"/>
<stop offset="1" stop-color="#F48C33"/>
</linearGradient>
<linearGradient id="paint13_linear_17_14616" x1="23.7165" y1="120.634" x2="36.4228" y2="120.634" gradientUnits="userSpaceOnUse">
<stop stop-color="#F15B2A"/>
<stop offset="1" stop-color="#F48C33"/>
</linearGradient>
<linearGradient id="paint14_linear_17_14616" x1="44.2116" y1="131.326" x2="52.9415" y2="131.326" gradientUnits="userSpaceOnUse">
<stop stop-color="#F15B2A"/>
<stop offset="1" stop-color="#F48C33"/>
</linearGradient>
<linearGradient id="paint15_linear_17_14616" x1="69.6216" y1="120.464" x2="69.6216" y2="139.103" gradientUnits="userSpaceOnUse">
<stop stop-color="#D91D5D"/>
<stop offset="1" stop-color="#BB2453"/>
</linearGradient>
<linearGradient id="paint16_linear_17_14616" x1="90.6666" y1="122.632" x2="90.6666" y2="136.502" gradientUnits="userSpaceOnUse">
<stop stop-color="#D91D5D"/>
<stop offset="1" stop-color="#BB2453"/>
</linearGradient>
<linearGradient id="paint17_linear_17_14616" x1="109.174" y1="122.632" x2="109.174" y2="136.502" gradientUnits="userSpaceOnUse">
<stop stop-color="#D91D5D"/>
<stop offset="1" stop-color="#BB2453"/>
</linearGradient>
<linearGradient id="paint18_linear_17_14616" x1="114.289" y1="104.256" x2="131.532" y2="104.256" gradientUnits="userSpaceOnUse">
<stop stop-color="#962164"/>
<stop offset="1" stop-color="#6C3367"/>
</linearGradient>
<linearGradient id="paint19_linear_17_14616" x1="123.866" y1="84.1629" x2="136.573" y2="84.1629" gradientUnits="userSpaceOnUse">
<stop stop-color="#962164"/>
<stop offset="1" stop-color="#6C3367"/>
</linearGradient>
<linearGradient id="paint20_linear_17_14616" x1="125.855" y1="62.781" x2="134.584" y2="62.781" gradientUnits="userSpaceOnUse">
<stop stop-color="#962164"/>
<stop offset="1" stop-color="#6C3367"/>
</linearGradient>
<linearGradient id="paint21_linear_17_14616" x1="114.29" y1="42.688" x2="131.532" y2="42.688" gradientUnits="userSpaceOnUse">
<stop stop-color="#2CB674"/>
<stop offset="1" stop-color="#009568"/>
</linearGradient>
<linearGradient id="paint22_linear_17_14616" x1="102.822" y1="26.3086" x2="115.528" y2="26.3086" gradientUnits="userSpaceOnUse">
<stop stop-color="#2CB674"/>
<stop offset="1" stop-color="#009568"/>
</linearGradient>
<linearGradient id="paint23_linear_17_14616" x1="86.3032" y1="15.6172" x2="95.0328" y2="15.6172" gradientUnits="userSpaceOnUse">
<stop stop-color="#2CB674"/>
<stop offset="1" stop-color="#009568"/>
</linearGradient>
</defs>
</svg>
