<svg width="389" height="844" viewBox="0 0 389 844" fill="none" xmlns="http://www.w3.org/2000/svg">
<path fill-rule="evenodd" clip-rule="evenodd" d="M249.774 0L-1 0V178.202C5.82075 177.018 13.2801 175.491 21.464 173.571C207.851 124.211 230.925 58.0587 249.774 0ZM389 693.536V844H71.909C98.4275 791.686 174.023 747.93 263.63 716.591C307.461 701.262 351.057 693.356 389 693.536ZM252.423 555.909L249.864 556.174C180.255 563.382 81.5965 573.598 55.2438 551.168C28.5666 528.461 25.9211 515.668 22.4211 496.168C6.13612 405.437 69.4936 340.847 169.552 305.852C269.61 270.858 371.382 294.321 369.433 384.35L369.443 385.483C370.037 455.773 370.717 536.273 252.423 555.909Z" fill="#0E9CAB" fill-opacity="0.3"/>
</svg>
