<svg width="90" height="26" viewBox="0 0 90 26" fill="none" xmlns="http://www.w3.org/2000/svg">
<rect width="90" height="26" rx="13" fill="#CEDEE1"/>
<path d="M14.196 11.444H17.952V12.104H14.196V11.444ZM13.416 15.104L14.256 15.296C13.644 16.544 12.408 17.432 11.112 17.996C10.992 17.828 10.704 17.504 10.512 17.348C11.772 16.892 12.9 16.124 13.416 15.104ZM16.02 10.052C14.94 11.132 12.924 12.344 10.932 13.064C10.824 12.872 10.632 12.56 10.464 12.38C12.516 11.696 14.544 10.508 15.552 9.356H16.38C17.736 10.64 19.836 11.708 21.696 12.248C21.516 12.44 21.312 12.752 21.192 12.98C19.416 12.392 17.244 11.216 16.02 10.052ZM12.888 13.424V14.612H14.7V13.424H12.888ZM12.024 12.764H15.588V15.26H12.024V12.764ZM17.268 13.424V14.612H19.14V13.424H17.268ZM16.416 12.764H20.04V15.26H16.416V12.764ZM12.936 16.448L13.464 15.872C14.1 16.136 14.88 16.592 15.3 16.916L14.76 17.564C14.352 17.216 13.56 16.736 12.936 16.448ZM17.58 15.104L18.432 15.248C17.964 16.556 16.86 17.444 15.588 17.996C15.48 17.84 15.18 17.516 15 17.372C16.212 16.94 17.196 16.184 17.58 15.104ZM17.196 16.496L17.784 15.884C18.984 16.244 20.484 16.868 21.336 17.3L20.736 17.972C19.92 17.504 18.408 16.868 17.196 16.496ZM11.976 7.964H15.696V8.672H11.976V7.964ZM16.512 7.964H21.516V8.672H16.512V7.964ZM12.228 6.872L13.068 7.088C12.624 8.264 11.904 9.416 11.196 10.172C11.028 10.04 10.668 9.8 10.452 9.68C11.196 8.984 11.844 7.928 12.228 6.872ZM16.908 6.872L17.76 7.088C17.316 8.084 16.56 9.056 15.816 9.668C15.66 9.524 15.288 9.284 15.084 9.164C15.84 8.6 16.512 7.748 16.908 6.872ZM12.66 8.492L13.44 8.276C13.716 8.792 14.04 9.5 14.148 9.944L13.332 10.184C13.236 9.74 12.948 9.02 12.66 8.492ZM17.664 8.492L18.468 8.252C18.912 8.744 19.404 9.428 19.62 9.896L18.78 10.16C18.588 9.704 18.108 8.996 17.664 8.492ZM22.164 15.752H33V16.496H22.164V15.752ZM27.12 14.624H28.056V17.96H27.12V14.624ZM24.456 13.448V14.312H30.744V13.448H24.456ZM24.456 11.972V12.824H30.744V11.972H24.456ZM23.58 11.312H31.644V14.972H23.58V11.312ZM22.992 7.904H32.256V8.636H22.992V7.904ZM22.188 9.944H33.024V10.688H22.188V9.944ZM27.108 6.92H28.044V8.384H27.108V6.92ZM29.628 8.468L30.564 8.684C30.288 9.224 29.964 9.764 29.7 10.148L28.872 9.956C29.124 9.548 29.46 8.9 29.628 8.468ZM24.72 8.708L25.56 8.516C25.884 8.936 26.196 9.524 26.304 9.92L25.404 10.148C25.308 9.74 25.02 9.14 24.72 8.708ZM33.84 12.32H44.568V13.232H33.84V12.32ZM36.036 7.088L36.972 7.292C36.468 9.056 35.676 10.736 34.776 11.828C34.584 11.684 34.14 11.456 33.912 11.348C34.848 10.328 35.592 8.732 36.036 7.088ZM35.916 9.032H43.56V9.932H35.484L35.916 9.032ZM39.732 12.512C40.464 14.924 42.132 16.544 44.856 17.144C44.652 17.336 44.388 17.72 44.244 17.972C41.424 17.228 39.756 15.476 38.904 12.716L39.732 12.512ZM38.676 6.92H39.612V10.664C39.612 13.424 39.048 16.328 34.26 17.984C34.164 17.756 33.888 17.384 33.696 17.204C38.184 15.68 38.676 13.1 38.676 10.652V6.92ZM51.516 9.152H56.316V10.004H51.516V9.152ZM51.924 6.92L52.848 7.076C52.404 9.32 51.624 11.384 50.556 12.716C50.4 12.56 50.004 12.26 49.788 12.128C50.844 10.904 51.54 8.972 51.924 6.92ZM54.504 9.584L55.428 9.704C54.804 13.796 53.496 16.4 50.52 17.996C50.436 17.78 50.16 17.372 49.98 17.168C52.776 15.8 53.964 13.34 54.504 9.584ZM51.984 9.824C52.608 13.208 53.94 16.028 56.46 17.192C56.256 17.372 55.968 17.72 55.812 17.972C53.184 16.628 51.864 13.688 51.156 9.98L51.984 9.824ZM46.668 15.092L47.532 15.308C47.172 16.316 46.548 17.336 45.912 17.996C45.756 17.84 45.384 17.588 45.192 17.456C45.816 16.868 46.356 15.98 46.668 15.092ZM48.372 15.44L49.104 15.092C49.584 15.644 50.1 16.4 50.328 16.904L49.56 17.312C49.332 16.796 48.828 16.004 48.372 15.44ZM46.716 10.352V11.876H49.188V10.352H46.716ZM46.716 12.584V14.108H49.188V12.584H46.716ZM46.716 8.132V9.644H49.188V8.132H46.716ZM45.852 7.388H50.076V14.864H45.852V7.388ZM62.1 7.592H67.308V12.884H66.396V8.444H62.1V7.592ZM62.868 11.336H66.804V12.188H62.868V11.336ZM62.448 11.336H63.348V16.496C63.348 16.964 63.468 17.06 64.128 17.06C64.44 17.06 66.012 17.06 66.42 17.06C67.02 17.06 67.116 16.772 67.176 15.188C67.392 15.344 67.776 15.488 68.028 15.56C67.908 17.396 67.632 17.912 66.468 17.912C66.18 17.912 64.308 17.912 64.056 17.912C62.82 17.912 62.448 17.624 62.448 16.496V11.336ZM59.076 12.584H59.928V17.96H59.076V12.584ZM58.932 6.932L59.76 7.28C59.232 8.168 58.536 9.236 57.984 9.908L57.348 9.596C57.888 8.9 58.56 7.736 58.932 6.932ZM60.48 8.276L61.272 8.66C60.324 10.016 59.004 11.72 57.96 12.764L57.384 12.428C58.416 11.36 59.724 9.56 60.48 8.276ZM56.844 9.584L57.276 8.984C57.96 9.488 58.752 10.22 59.112 10.712L58.656 11.408C58.296 10.88 57.516 10.112 56.844 9.584ZM60.096 11.048L60.78 10.724C61.356 11.504 61.98 12.536 62.232 13.22L61.5 13.58C61.26 12.908 60.66 11.84 60.096 11.048ZM56.772 12.236C57.936 12.188 59.664 12.116 61.368 12.032L61.356 12.788C59.736 12.896 58.068 12.992 56.868 13.04L56.772 12.236ZM60.42 13.976L61.14 13.724C61.548 14.456 61.956 15.416 62.124 16.052L61.356 16.34C61.212 15.704 60.804 14.72 60.42 13.976ZM57.588 13.796L58.404 13.94C58.212 15.092 57.864 16.256 57.444 17.024C57.288 16.916 56.904 16.724 56.688 16.652C57.144 15.92 57.42 14.84 57.588 13.796ZM74.616 7.832H78V8.528H74.616V7.832ZM74.316 9.716H77.82V10.412H74.316V9.716ZM73.092 11.444H79.476V12.2H73.092V11.444ZM77.676 7.832H77.772L77.928 7.784L78.552 7.856C78.432 9.008 78.204 10.604 77.988 11.804L77.136 11.732C77.364 10.52 77.58 8.816 77.676 7.94V7.832ZM74.52 6.92L75.372 7.004C75.144 8.276 74.796 9.932 74.544 10.928L73.68 10.832C73.956 9.836 74.304 8.156 74.52 6.92ZM72.792 16.568C73.464 16.196 74.472 15.584 75.444 14.972L75.708 15.632C74.88 16.208 73.98 16.796 73.248 17.252L72.792 16.568ZM73.332 13.124L73.956 12.74C74.436 13.196 74.952 13.844 75.168 14.288L74.496 14.732C74.292 14.276 73.8 13.604 73.332 13.124ZM78.636 12.716L79.356 13.088C78.948 13.664 78.468 14.264 78.072 14.684L77.484 14.336C77.856 13.904 78.36 13.208 78.636 12.716ZM75.816 11.792H76.68V17.036C76.68 17.468 76.596 17.696 76.296 17.828C76.02 17.96 75.564 17.972 74.868 17.972C74.832 17.744 74.712 17.42 74.604 17.192C75.084 17.216 75.504 17.204 75.636 17.204C75.78 17.204 75.816 17.168 75.816 17.036V11.792ZM76.656 12.44C77.088 14.372 78.048 15.956 79.632 16.616C79.452 16.772 79.2 17.084 79.08 17.312C77.436 16.496 76.488 14.756 76.008 12.572L76.656 12.44ZM69.276 9.896H72.648V10.676H69.276V9.896ZM68.628 11.948H73.02V12.74H68.628V11.948ZM68.904 13.532L69.528 13.376C69.768 14.108 69.96 15.032 70.008 15.656L69.336 15.824C69.324 15.2 69.132 14.264 68.904 13.532ZM68.52 16.76C69.672 16.568 71.4 16.22 73.068 15.872L73.128 16.64C71.568 16.988 69.924 17.336 68.7 17.6L68.52 16.76ZM72.24 13.268L72.936 13.448C72.732 14.18 72.528 15.044 72.324 15.608L71.736 15.44C71.916 14.852 72.132 13.904 72.24 13.268ZM70.512 10.184H71.304V16.724L70.512 16.856V10.184ZM70.476 6.932H70.944V7.124H71.208V7.352C70.74 8.276 69.96 9.548 68.772 10.592C68.64 10.412 68.376 10.148 68.208 10.028C69.3 9.116 70.068 7.892 70.476 6.932ZM70.62 6.932H71.292C72.012 7.556 72.912 8.456 73.344 9.056L72.744 9.74C72.324 9.152 71.496 8.156 70.788 7.568H70.62V6.932Z" fill="black"/>
</svg>
